{
  "source": "C:\\Users\\Peter\\Desktop\\stuff\\MIUN\\quantitative_research\\video_compression\\videos\\BVI-HD\\BricksLeaves_1920x1080_60fps.mp4",
  "output": "C:\\Users\\Peter\\Desktop\\stuff\\MIUN\\quantitative_research\\video_compression\\compressed_videos\\BVI-HD\\av1\\12\\BricksLeaves_1920x1080_60fps_av1.mkv",
  "codec": "av1",
  "ok": "Input #0, mov,mp4,m4a,3gp,3g2,mj2, from 'C:\\Users\\Peter\\Desktop\\stuff\\MIUN\\quantitative_research\\video_compression\\videos\\BVI-HD\\BricksLeaves_1920x1080_60fps.mp4':\n  Metadata:\n    major_brand     : isom\n    minor_version   : 512\n    compatible_brands: isomiso2avc1mp41\n    encoder         : Lavf54.28.101\n  Duration: 00:00:05.00, start: 0.000000, bitrate: 524627 kb/s\n  Stream #0:0[0x1](und): Video: h264 (High 4:4:4 Predictive) (avc1 / 0x31637661), yuv420p(progressive), 1920x1080, 524622 kb/s, 60 fps, 60 tbr, 60 tbn (default)\n    Metadata:\n      handler_name    : VideoHandler\n      vendor_id       : [0][0][0][0]\n[out#0/matroska @ 000001f91ac59480] Codec AVOption b:a (set bitrate (in bits/s)) has not been used for any stream. The most likely reason is either wrong type (e.g. a video option with no video streams) or that it is a private option of some decoder which was not actually used for any stream.\nStream mapping:\n  Stream #0:0 -> #0:0 (h264 (native) -> av1 (libsvtav1))\nPress [q] to stop, [?] for help\nSvt[info]: -------------------------------------------\nSvt[info]: SVT [version]:\tSVT-AV1 Encoder Lib v3.1.0-19-g6ecfe8ec\nSvt[info]: SVT [build]  :\tGCC 15.2.0\t 64 bit\nSvt[info]: LIB Build date: Aug 17 2025 11:37:13\nSvt[info]: -------------------------------------------\nSvt[info]: Level of Parallelism: 5\nSvt[info]: Number of PPCS 93\nSvt[info]: [asm level on system : up to avx2]\nSvt[info]: [asm level selected : up to avx2]\nSvt[info]: -------------------------------------------\nSvt[info]: SVT [config]: main profile\ttier (auto)\tlevel (auto)\nSvt[info]: SVT [config]: width / height / fps numerator / fps denominator \t\t: 1920 / 1080 / 60 / 1\nSvt[info]: SVT [config]: bit-depth / color format \t\t\t\t\t: 8 / YUV420\nSvt[info]: SVT [config]: preset / tune / pred struct \t\t\t\t\t: 4 / PSNR / random access\nSvt[info]: SVT [config]: gop size / mini-gop size / key-frame type \t\t\t: 321 / 16 / key frame\nSvt[info]: SVT [config]: BRC mode / target bitrate (kbps)\t\t\t\t: VBR / 12000 \nSvt[info]: SVT [config]: AQ mode / Variance Boost \t\t\t\t\t: 2 / 0\nSvt[info]: SVT [config]: sharpness / luminance-based QP bias \t\t\t\t: 0 / 0\nSvt[info]: SVT [config]: QP scale compress strength \t\t\t\t\t: 0\nSvt[info]: -------------------------------------------\nOutput #0, matroska, to 'C:\\Users\\Peter\\Desktop\\stuff\\MIUN\\quantitative_research\\video_compression\\compressed_videos\\BVI-HD\\av1\\12\\BricksLeaves_1920x1080_60fps_av1.mkv':\n  Metadata:\n    major_brand     : isom\n    minor_version   : 512\n    compatible_brands: isomiso2avc1mp41\n    encoder         : Lavf62.3.100\n  Stream #0:0(und): Video: av1 (AV01 / 0x31305641), yuv420p(tv, progressive), 1920x1080, q=2-31, 12000 kb/s, 60 fps, 1k tbn (default)\n    Metadata:\n      encoder         : Lavc62.11.100 libsvtav1\n      handler_name    : VideoHandler\n      vendor_id       : [0][0][0][0]\n    Side data:\n      cpb: bitrate max/min/avg: 0/0/12000000 buffer size: 12000000 vbv_delay: N/A\nframe=    0 fps=0.0 q=0.0 size=       0KiB time=N/A bitrate=N/A speed=N/A elapsed=0:00:02.32    \nframe=    0 fps=0.0 q=0.0 size=       0KiB time=N/A bitrate=N/A speed=N/A elapsed=0:00:03.24    \nframe=    0 fps=0.0 q=0.0 size=       0KiB time=N/A bitrate=N/A speed=N/A elapsed=0:00:03.84    \nframe=    0 fps=0.0 q=0.0 size=       0KiB time=N/A bitrate=N/A speed=N/A elapsed=0:00:04.50    \nframe=    0 fps=0.0 q=0.0 size=       0KiB time=N/A bitrate=N/A speed=N/A elapsed=0:00:05.23    \nframe=    0 fps=0.0 q=0.0 size=       0KiB time=N/A bitrate=N/A speed=N/A elapsed=0:00:05.91    \nframe=    0 fps=0.0 q=0.0 size=       0KiB time=N/A bitrate=N/A speed=N/A elapsed=0:00:06.60    \nframe=    0 fps=0.0 q=0.0 size=       0KiB time=N/A bitrate=N/A speed=N/A elapsed=0:00:07.25    \nframe=    0 fps=0.0 q=0.0 size=       0KiB time=N/A bitrate=N/A speed=N/A elapsed=0:00:07.93    \nframe=    0 fps=0.0 q=0.0 size=       0KiB time=N/A bitrate=N/A speed=N/A elapsed=0:00:08.56    \nframe=    0 fps=0.0 q=0.0 size=       0KiB time=N/A bitrate=N/A speed=N/A elapsed=0:00:09.21    \nframe=    0 fps=0.0 q=0.0 size=       0KiB time=N/A bitrate=N/A speed=N/A elapsed=0:00:09.87    \nframe=    0 fps=0.0 q=0.0 size=       0KiB time=N/A bitrate=N/A speed=N/A elapsed=0:00:10.77    \nframe=    0 fps=0.0 q=0.0 size=       0KiB time=N/A bitrate=N/A speed=N/A elapsed=0:00:11.51    \nframe=    0 fps=0.0 q=0.0 size=       0KiB time=N/A bitrate=N/A speed=N/A elapsed=0:00:12.25    \nframe=    0 fps=0.0 q=0.0 size=       0KiB time=N/A bitrate=N/A speed=N/A elapsed=0:00:12.76    \nframe=    0 fps=0.0 q=0.0 size=       0KiB time=N/A bitrate=N/A speed=N/A elapsed=0:00:13.27    \nframe=    0 fps=0.0 q=0.0 size=       0KiB time=N/A bitrate=N/A speed=N/A elapsed=0:00:13.80    \nframe=    1 fps=0.1 q=4.0 size=       1KiB time=00:00:00.00 bitrate=N/A speed=   0x elapsed=0:00:14.30    \nframe=    1 fps=0.1 q=4.0 size=       1KiB time=00:00:00.00 bitrate=N/A speed=   0x elapsed=0:00:14.83    \nframe=    1 fps=0.1 q=4.0 size=       1KiB time=00:00:00.00 bitrate=N/A speed=   0x elapsed=0:00:15.34    \nframe=    1 fps=0.1 q=4.0 size=       1KiB time=00:00:00.00 bitrate=N/A speed=   0x elapsed=0:00:15.86    \nframe=    2 fps=0.1 q=32.0 size=       1KiB time=00:00:00.01 bitrate= 341.8kbits/s speed=0.00102x elapsed=0:00:16.37    \nframe=    3 fps=0.2 q=28.0 size=       1KiB time=00:00:00.03 bitrate= 170.9kbits/s speed=0.00197x elapsed=0:00:16.88    \nframe=    6 fps=0.3 q=32.0 size=       1KiB time=00:00:00.08 bitrate=  68.4kbits/s speed=0.00479x elapsed=0:00:17.40    \nframe=    7 fps=0.4 q=27.0 size=       1KiB time=00:00:00.10 bitrate=  57.0kbits/s speed=0.00558x elapsed=0:00:17.92    \nframe=    9 fps=0.5 q=22.0 size=       1KiB time=00:00:00.13 bitrate=  42.7kbits/s speed=0.00723x elapsed=0:00:18.43    \nframe=   11 fps=0.6 q=27.0 size=       1KiB time=00:00:00.16 bitrate=  34.2kbits/s speed=0.0088x elapsed=0:00:18.94    \nframe=   13 fps=0.7 q=24.0 size=       1KiB time=00:00:00.20 bitrate=  28.5kbits/s speed=0.0103x elapsed=0:00:19.46    \nframe=   16 fps=0.8 q=33.0 size=       1KiB time=00:00:00.25 bitrate=  22.8kbits/s speed=0.0125x elapsed=0:00:19.98    \nframe=   19 fps=0.9 q=27.0 size=       1KiB time=00:00:00.30 bitrate=  19.0kbits/s speed=0.0146x elapsed=0:00:20.50    \nframe=   21 fps=1.0 q=26.0 size=       1KiB time=00:00:00.33 bitrate=  17.1kbits/s speed=0.0159x elapsed=0:00:21.01    \nframe=   22 fps=1.0 q=24.0 size=       1KiB time=00:00:00.35 bitrate=  16.3kbits/s speed=0.0163x elapsed=0:00:21.53    \nframe=   23 fps=1.0 q=26.0 size=       1KiB time=00:00:00.36 bitrate=  15.5kbits/s speed=0.0166x elapsed=0:00:22.04    \nframe=   26 fps=1.2 q=25.0 size=       1KiB time=00:00:00.41 bitrate=  13.7kbits/s speed=0.0185x elapsed=0:00:22.56    \nframe=   27 fps=1.2 q=26.0 size=       1KiB time=00:00:00.43 bitrate=  13.1kbits/s speed=0.0188x elapsed=0:00:23.07    \nframe=   29 fps=1.2 q=25.0 size=       1KiB time=00:00:00.46 bitrate=  12.2kbits/s speed=0.0198x elapsed=0:00:23.59    \nframe=   32 fps=1.3 q=28.0 size=       1KiB time=00:00:00.51 bitrate=  11.0kbits/s speed=0.0214x elapsed=0:00:24.11    \nframe=   34 fps=1.4 q=26.0 size=       1KiB time=00:00:00.55 bitrate=  10.4kbits/s speed=0.0223x elapsed=0:00:24.62    \nframe=   35 fps=1.4 q=26.0 size=       1KiB time=00:00:00.56 bitrate=  10.1kbits/s speed=0.0225x elapsed=0:00:25.13    \nframe=   36 fps=1.4 q=26.0 size=       1KiB time=00:00:00.60 bitrate=   9.5kbits/s speed=0.0234x elapsed=0:00:25.65    \nframe=   38 fps=1.5 q=28.0 size=       1KiB time=00:00:00.61 bitrate=   9.2kbits/s speed=0.0236x elapsed=0:00:26.17    \nframe=   39 fps=1.5 q=26.0 size=       1KiB time=00:00:00.63 bitrate=   9.0kbits/s speed=0.0237x elapsed=0:00:26.68    \nframe=   40 fps=1.5 q=28.0 size=       1KiB time=00:00:00.65 bitrate=   8.8kbits/s speed=0.0239x elapsed=0:00:27.19    \nframe=   42 fps=1.5 q=29.0 size=       1KiB time=00:00:00.68 bitrate=   8.3kbits/s speed=0.0247x elapsed=0:00:27.71    \nframe=   44 fps=1.6 q=29.0 size=       1KiB time=00:00:00.71 bitrate=   7.9kbits/s speed=0.0254x elapsed=0:00:28.23    \nframe=   47 fps=1.6 q=26.0 size=       1KiB time=00:00:00.76 bitrate=   7.4kbits/s speed=0.0267x elapsed=0:00:28.75    \nframe=   49 fps=1.7 q=13.0 size=       1KiB time=00:00:00.80 bitrate=   7.1kbits/s speed=0.0273x elapsed=0:00:29.26    \nframe=   51 fps=1.7 q=28.0 size=       1KiB time=00:00:00.83 bitrate=   6.8kbits/s speed=0.028x elapsed=0:00:29.77    \nframe=   53 fps=1.7 q=25.0 size=       1KiB time=00:00:00.86 bitrate=   6.6kbits/s speed=0.0286x elapsed=0:00:30.29    \nframe=   54 fps=1.8 q=30.0 size=       1KiB time=00:00:00.88 bitrate=   6.4kbits/s speed=0.0287x elapsed=0:00:30.81    \nframe=   56 fps=1.8 q=30.0 size=       1KiB time=00:00:00.91 bitrate=   6.2kbits/s speed=0.0293x elapsed=0:00:31.32    \nframe=   58 fps=1.8 q=30.0 size=       1KiB time=00:00:00.95 bitrate=   6.0kbits/s speed=0.0298x elapsed=0:00:31.84    \nframe=   59 fps=1.8 q=28.0 size=       1KiB time=00:00:00.96 bitrate=   5.9kbits/s speed=0.0299x elapsed=0:00:32.36    \nframe=   62 fps=1.9 q=31.0 size=       1KiB time=00:00:01.01 bitrate=   5.6kbits/s speed=0.0309x elapsed=0:00:32.87    \nframe=   66 fps=2.0 q=32.0 size=       1KiB time=00:00:01.08 bitrate=   5.3kbits/s speed=0.0324x elapsed=0:00:33.39    \nframe=   68 fps=2.0 q=32.0 size=       1KiB time=00:00:01.11 bitrate=   5.1kbits/s speed=0.0329x elapsed=0:00:33.90    \nframe=   70 fps=2.0 q=32.0 size=       1KiB time=00:00:01.15 bitrate=   5.0kbits/s speed=0.0334x elapsed=0:00:34.42    \nframe=   71 fps=2.0 q=25.0 size=       1KiB time=00:00:01.16 bitrate=   4.9kbits/s speed=0.0334x elapsed=0:00:34.93    \nframe=   73 fps=2.1 q=14.0 size=       1KiB time=00:00:01.20 bitrate=   4.7kbits/s speed=0.0338x elapsed=0:00:35.45    \nframe=   75 fps=2.1 q=28.0 size=       1KiB time=00:00:01.23 bitrate=   4.6kbits/s speed=0.0343x elapsed=0:00:35.96    \nframe=   76 fps=2.1 q=32.0 size=       1KiB time=00:00:01.25 bitrate=   4.6kbits/s speed=0.0343x elapsed=0:00:36.47    \nframe=   79 fps=2.1 q=26.0 size=       1KiB time=00:00:01.30 bitrate=   4.4kbits/s speed=0.0351x elapsed=0:00:37.00    \nframe=   82 fps=2.2 q=31.0 size=       1KiB time=00:00:01.35 bitrate=   4.2kbits/s speed=0.036x elapsed=0:00:37.52    \nframe=   84 fps=2.2 q=31.0 size=       1KiB time=00:00:01.38 bitrate=   4.1kbits/s speed=0.0364x elapsed=0:00:38.03    \nframe=   86 fps=2.2 q=31.0 size=       1KiB time=00:00:01.41 bitrate=   4.0kbits/s speed=0.0368x elapsed=0:00:38.54    \nframe=   87 fps=2.2 q=26.0 size=       1KiB time=00:00:01.43 bitrate=   4.0kbits/s speed=0.0367x elapsed=0:00:39.06    \nframe=   89 fps=2.2 q=15.0 size=       1KiB time=00:00:01.46 bitrate=   3.9kbits/s speed=0.0371x elapsed=0:00:39.58    \nframe=   90 fps=2.2 q=31.0 size=       1KiB time=00:00:01.48 bitrate=   3.8kbits/s speed=0.037x elapsed=0:00:40.09    \nframe=   91 fps=2.2 q=28.0 size=       1KiB time=00:00:01.50 bitrate=   3.8kbits/s speed=0.0369x elapsed=0:00:40.61    \nframe=   93 fps=2.3 q=25.0 size=       1KiB time=00:00:01.53 bitrate=   3.7kbits/s speed=0.0373x elapsed=0:00:41.13    \nframe=   97 fps=2.3 q=5.0 size=       1KiB time=00:00:01.60 bitrate=   3.6kbits/s speed=0.0384x elapsed=0:00:41.63    \nframe=   99 fps=2.3 q=28.0 size=       1KiB time=00:00:01.63 bitrate=   3.5kbits/s speed=0.0387x elapsed=0:00:42.15    \nframe=  100 fps=2.3 q=32.0 size=       1KiB time=00:00:01.65 bitrate=   3.5kbits/s speed=0.0387x elapsed=0:00:42.67    \nframe=  102 fps=2.4 q=32.0 size=       1KiB time=00:00:01.68 bitrate=   3.4kbits/s speed=0.039x elapsed=0:00:43.18    \nframe=  103 fps=2.4 q=28.0 size=       1KiB time=00:00:01.70 bitrate=   3.4kbits/s speed=0.0389x elapsed=0:00:43.70    \nframe=  105 fps=2.4 q=17.0 size=       1KiB time=00:00:01.73 bitrate=   3.3kbits/s speed=0.0392x elapsed=0:00:44.21    \nframe=  106 fps=2.4 q=32.0 size=       1KiB time=00:00:01.75 bitrate=   3.3kbits/s speed=0.0391x elapsed=0:00:44.72    \nframe=  107 fps=2.4 q=28.0 size=       1KiB time=00:00:01.76 bitrate=   3.2kbits/s speed=0.039x elapsed=0:00:45.24    \nframe=  110 fps=2.4 q=32.0 size=       1KiB time=00:00:01.81 bitrate=   3.1kbits/s speed=0.0397x elapsed=0:00:45.76    \nframe=  113 fps=2.4 q=8.0 size=       1KiB time=00:00:01.86 bitrate=   3.1kbits/s speed=0.0403x elapsed=0:00:46.28    \nframe=  115 fps=2.5 q=29.0 size=       1KiB time=00:00:01.90 bitrate=   3.0kbits/s speed=0.0406x elapsed=0:00:46.79    \nframe=  117 fps=2.5 q=26.0 size=       1KiB time=00:00:01.93 bitrate=   2.9kbits/s speed=0.0409x elapsed=0:00:47.31    \nframe=  118 fps=2.5 q=32.0 size=       1KiB time=00:00:01.95 bitrate=   2.9kbits/s speed=0.0408x elapsed=0:00:47.82    \nframe=  119 fps=2.5 q=29.0 size=       1KiB time=00:00:01.96 bitrate=   2.9kbits/s speed=0.0407x elapsed=0:00:48.34    \nframe=  119 fps=2.4 q=29.0 size=       1KiB time=00:00:01.96 bitrate=   2.9kbits/s speed=0.0402x elapsed=0:00:48.86    \nframe=  121 fps=2.5 q=20.0 size=       1KiB time=00:00:02.00 bitrate=   2.8kbits/s speed=0.0405x elapsed=0:00:49.38    \nframe=  122 fps=2.4 q=32.0 size=       1KiB time=00:00:02.01 bitrate=   2.8kbits/s speed=0.0404x elapsed=0:00:49.88    \nframe=  123 fps=2.4 q=29.0 size=       1KiB time=00:00:02.03 bitrate=   2.8kbits/s speed=0.0403x elapsed=0:00:50.41    \nframe=  124 fps=2.4 q=32.0 size=       1KiB time=00:00:02.05 bitrate=   2.8kbits/s speed=0.0403x elapsed=0:00:50.92    \nframe=  128 fps=2.5 q=32.0 size=       1KiB time=00:00:02.11 bitrate=   2.7kbits/s speed=0.0412x elapsed=0:00:51.43    \nframe=  130 fps=2.5 q=33.0 size=       1KiB time=00:00:02.15 bitrate=   2.6kbits/s speed=0.0414x elapsed=0:00:51.95    \nframe=  131 fps=2.5 q=32.0 size=       1KiB time=00:00:02.16 bitrate=   2.6kbits/s speed=0.0413x elapsed=0:00:52.46    \nframe=  133 fps=2.5 q=29.0 size=       1KiB time=00:00:02.20 bitrate=   2.6kbits/s speed=0.0415x elapsed=0:00:52.98    \nframe=  134 fps=2.5 q=33.0 size=       1KiB time=00:00:02.21 bitrate=   2.6kbits/s speed=0.0414x elapsed=0:00:53.49    \nframe=  135 fps=2.5 q=32.0 size=       1KiB time=00:00:02.23 bitrate=   2.6kbits/s speed=0.0413x elapsed=0:00:54.01    \nframe=  137 fps=2.5 q=23.0 size=       1KiB time=00:00:02.26 bitrate=   2.5kbits/s speed=0.0416x elapsed=0:00:54.53    \nframe=  139 fps=2.5 q=30.0 size=       1KiB time=00:00:02.30 bitrate=   2.5kbits/s speed=0.0418x elapsed=0:00:55.04    \nframe=  140 fps=2.5 q=33.0 size=       1KiB time=00:00:02.31 bitrate=   2.5kbits/s speed=0.0417x elapsed=0:00:55.55    \nframe=  144 fps=2.6 q=32.0 size=       1KiB time=00:00:02.38 bitrate=   2.4kbits/s speed=0.0425x elapsed=0:00:56.07    \nframe=  146 fps=2.6 q=32.0 size=       1KiB time=00:00:02.41 bitrate=   2.4kbits/s speed=0.0427x elapsed=0:00:56.58    \nframe=  148 fps=2.6 q=32.0 size=       1KiB time=00:00:02.45 bitrate=   2.3kbits/s speed=0.0429x elapsed=0:00:57.11    \nframe=  150 fps=2.6 q=32.0 size=       1KiB time=00:00:02.48 bitrate=   2.3kbits/s speed=0.0431x elapsed=0:00:57.62    \nframe=  151 fps=2.6 q=31.0 size=       1KiB time=00:00:02.50 bitrate=   2.3kbits/s speed=0.043x elapsed=0:00:58.20    \nframe=  155 fps=2.6 q=30.0 size=       1KiB time=00:00:02.55 bitrate=   2.2kbits/s speed=0.0434x elapsed=0:00:58.72    \nframe=  156 fps=2.6 q=30.0 size=       1KiB time=00:00:02.58 bitrate=   2.2kbits/s speed=0.0436x elapsed=0:00:59.28    \nframe=  160 fps=2.7 q=31.0 size=       1KiB time=00:00:02.65 bitrate=   2.1kbits/s speed=0.0443x elapsed=0:00:59.82    \nframe=  162 fps=2.7 q=32.0 size=       1KiB time=00:00:02.68 bitrate=   2.1kbits/s speed=0.0445x elapsed=0:01:00.34    \nframe=  164 fps=2.7 q=32.0 size=       1KiB time=00:00:02.71 bitrate=   2.1kbits/s speed=0.0446x elapsed=0:01:00.85    \nframe=  166 fps=2.7 q=32.0 size=       1KiB time=00:00:02.75 bitrate=   2.1kbits/s speed=0.0448x elapsed=0:01:01.37    \nframe=  167 fps=2.7 q=31.0 size=       1KiB time=00:00:02.76 bitrate=   2.1kbits/s speed=0.0447x elapsed=0:01:01.88    \nframe=  169 fps=2.7 q=25.0 size=       1KiB time=00:00:02.80 bitrate=   2.0kbits/s speed=0.0449x elapsed=0:01:02.41    \nframe=  171 fps=2.7 q=29.0 size=       1KiB time=00:00:02.81 bitrate=   2.0kbits/s speed=0.0447x elapsed=0:01:02.97    \nframe=  173 fps=2.7 q=25.0 size=       1KiB time=00:00:02.86 bitrate=   2.0kbits/s speed=0.0451x elapsed=0:01:03.50    \nframe=  177 fps=2.8 q=17.0 size=       1KiB time=00:00:02.93 bitrate=   1.9kbits/s speed=0.0458x elapsed=0:01:04.02    \nframe=  179 fps=2.8 q=30.0 size=       1KiB time=00:00:02.96 bitrate=   1.9kbits/s speed=0.0459x elapsed=0:01:04.57    \nframe=  181 fps=2.8 q=26.0 size=       1KiB time=00:00:03.00 bitrate=   1.9kbits/s speed=0.0461x elapsed=0:01:05.10    \nframe=  183 fps=2.8 q=30.0 size=       1KiB time=00:00:03.03 bitrate=   1.9kbits/s speed=0.0462x elapsed=0:01:05.64    \nframe=  186 fps=2.8 q=32.0 size=       1KiB time=00:00:03.08 bitrate=   1.8kbits/s speed=0.0466x elapsed=0:01:06.19    \nframe=  187 fps=2.8 q=30.0 size=       1KiB time=00:00:03.10 bitrate=   1.8kbits/s speed=0.0465x elapsed=0:01:06.72    \nframe=  192 fps=2.9 q=34.0 size=    5120KiB time=00:00:03.16 bitrate=13245.2kbits/s speed=0.0471x elapsed=0:01:07.28    \nframe=  194 fps=2.9 q=35.0 size=    5120KiB time=00:00:03.21 bitrate=13039.3kbits/s speed=0.0474x elapsed=0:01:07.82    \nframe=  197 fps=2.9 q=29.0 size=    5120KiB time=00:00:03.26 bitrate=12839.7kbits/s speed=0.0478x elapsed=0:01:08.35    \nframe=  199 fps=2.9 q=33.0 size=    5120KiB time=00:00:03.30 bitrate=12710.0kbits/s speed=0.0479x elapsed=0:01:08.88    \nframe=  201 fps=2.9 q=25.0 size=    5120KiB time=00:00:03.33 bitrate=12582.9kbits/s speed=0.048x elapsed=0:01:09.40    \nframe=  205 fps=2.9 q=29.0 size=    5120KiB time=00:00:03.40 bitrate=12336.2kbits/s speed=0.0486x elapsed=0:01:09.92    \nframe=  207 fps=2.9 q=34.0 size=    5120KiB time=00:00:03.43 bitrate=12216.4kbits/s speed=0.0487x elapsed=0:01:10.46    \nframe=  211 fps=3.0 q=36.0 size=    5120KiB time=00:00:03.50 bitrate=11983.7kbits/s speed=0.0493x elapsed=0:01:10.99    \nframe=  215 fps=3.0 q=36.0 size=    5120KiB time=00:00:03.56 bitrate=11759.7kbits/s speed=0.0498x elapsed=0:01:11.59    \nframe=  217 fps=3.0 q=28.0 size=    5120KiB time=00:00:03.60 bitrate=11650.8kbits/s speed=0.0499x elapsed=0:01:12.10    \nframe=  217 fps=3.0 q=28.0 size=    5120KiB time=00:00:03.60 bitrate=11650.8kbits/s speed=0.0496x elapsed=0:01:12.61    \nframe=  221 fps=3.0 q=33.0 size=    5120KiB time=00:00:03.66 bitrate=11439.0kbits/s speed=0.0501x elapsed=0:01:13.14    \nframe=  225 fps=3.1 q=20.0 size=    5120KiB time=00:00:03.73 bitrate=11234.7kbits/s speed=0.0507x elapsed=0:01:13.66    \nframe=  229 fps=3.1 q=39.0 size=    5120KiB time=00:00:03.80 bitrate=11037.6kbits/s speed=0.0512x elapsed=0:01:14.18    \nframe=  233 fps=3.1 q=33.0 size=    5120KiB time=00:00:03.86 bitrate=10847.3kbits/s speed=0.0518x elapsed=0:01:14.70    \nframe=  233 fps=3.1 q=33.0 size=    5120KiB time=00:00:03.86 bitrate=10847.3kbits/s speed=0.0514x elapsed=0:01:15.21    \nframe=  237 fps=3.1 q=39.0 size=    5120KiB time=00:00:03.93 bitrate=10663.5kbits/s speed=0.0519x elapsed=0:01:15.73    \nframe=  241 fps=3.2 q=26.0 size=    5120KiB time=00:00:04.00 bitrate=10485.8kbits/s speed=0.0524x elapsed=0:01:16.27    \nframe=  245 fps=3.2 q=42.0 size=    5120KiB time=00:00:04.06 bitrate=10313.9kbits/s speed=0.0529x elapsed=0:01:16.80    \nframe=  249 fps=3.2 q=39.0 size=    5120KiB time=00:00:04.13 bitrate=10147.5kbits/s speed=0.0534x elapsed=0:01:17.33    \nframe=  249 fps=3.2 q=39.0 size=    5120KiB time=00:00:04.13 bitrate=10147.5kbits/s speed=0.0531x elapsed=0:01:17.86    \nframe=  253 fps=3.2 q=40.0 size=    5120KiB time=00:00:04.20 bitrate=9986.4kbits/s speed=0.0536x elapsed=0:01:18.39    \nframe=  255 fps=3.2 q=43.0 size=    5120KiB time=00:00:04.23 bitrate=9907.8kbits/s speed=0.0537x elapsed=0:01:18.90    \nframe=  259 fps=3.3 q=44.0 size=    5120KiB time=00:00:04.28 bitrate=9792.2kbits/s speed=0.0539x elapsed=0:01:19.42    \nframe=  261 fps=3.3 q=43.0 size=    5120KiB time=00:00:04.33 bitrate=9679.2kbits/s speed=0.0542x elapsed=0:01:19.93    \nframe=  265 fps=3.3 q=40.0 size=    5120KiB time=00:00:04.40 bitrate=9532.5kbits/s speed=0.0547x elapsed=0:01:20.46    \nframe=  265 fps=3.3 q=40.0 size=    5120KiB time=00:00:04.40 bitrate=9532.5kbits/s speed=0.0543x elapsed=0:01:20.98    \nframe=  269 fps=3.3 q=43.0 size=    5120KiB time=00:00:04.46 bitrate=9390.2kbits/s speed=0.0548x elapsed=0:01:21.57    \nframe=  271 fps=3.3 q=44.0 size=    5120KiB time=00:00:04.50 bitrate=9320.7kbits/s speed=0.0548x elapsed=0:01:22.10    \nframe=  273 fps=3.3 q=35.0 size=    5120KiB time=00:00:04.53 bitrate=9252.1kbits/s speed=0.0549x elapsed=0:01:22.61    \nframe=  277 fps=3.3 q=45.0 size=    5120KiB time=00:00:04.60 bitrate=9118.1kbits/s speed=0.0553x elapsed=0:01:23.14    \nframe=  281 fps=3.4 q=43.0 size=    5120KiB time=00:00:04.66 bitrate=8987.8kbits/s speed=0.0558x elapsed=0:01:23.65    \nframe=  281 fps=3.3 q=43.0 size=    5120KiB time=00:00:04.66 bitrate=8987.8kbits/s speed=0.0554x elapsed=0:01:24.16    \nframe=  285 fps=3.4 q=45.0 size=    5120KiB time=00:00:04.73 bitrate=8861.2kbits/s speed=0.0559x elapsed=0:01:24.68    \nframe=  287 fps=3.4 q=45.0 size=    5120KiB time=00:00:04.76 bitrate=8799.2kbits/s speed=0.0559x elapsed=0:01:25.23    \n[out#0/matroska @ 000001f91ac59480] video:7092KiB audio:0KiB subtitle:0KiB other streams:0KiB global headers:0KiB muxing overhead: 0.030598%\nframe=  300 fps=3.5 q=45.0 Lsize=    7094KiB time=00:00:04.98 bitrate=11661.5kbits/s speed=0.0582x elapsed=0:01:25.57    \n",
  "seconds": 87.82938814163208,
  "probe_out": {}
}